<svg width="49" height="48" viewBox="0 0 49 48" fill="none" xmlns="http://www.w3.org/2000/svg">
<mask id="mask0_36_5385" style="mask-type:alpha" maskUnits="userSpaceOnUse" x="0" y="0" width="49" height="48">
<rect x="0.930664" width="48" height="48" fill="#D9D9D9"/>
</mask>
<g mask="url(#mask0_36_5385)">
<path d="M12.6305 38.4498C12.0305 38.4498 11.5221 38.2415 11.1055 37.8248C10.6888 37.4081 10.4805 36.8998 10.4805 36.2998C10.4805 35.7331 10.6888 35.2331 11.1055 34.7998C11.5221 34.3665 12.0305 34.1498 12.6305 34.1498C13.1971 34.1498 13.6971 34.3665 14.1305 34.7998C14.5638 35.2331 14.7805 35.7331 14.7805 36.2998C14.7805 36.8998 14.5638 37.4081 14.1305 37.8248C13.6971 38.2415 13.1971 38.4498 12.6305 38.4498ZM24.9305 38.4498C24.3305 38.4498 23.8221 38.2415 23.4055 37.8248C22.9888 37.4081 22.7805 36.8998 22.7805 36.2998C22.7805 35.7331 22.9888 35.2331 23.4055 34.7998C23.8221 34.3665 24.3305 34.1498 24.9305 34.1498C25.5305 34.1498 26.0388 34.3665 26.4555 34.7998C26.8721 35.2331 27.0805 35.7331 27.0805 36.2998C27.0805 36.8998 26.8721 37.4081 26.4555 37.8248C26.0388 38.2415 25.5305 38.4498 24.9305 38.4498ZM37.2305 38.4498C36.6638 38.4498 36.1638 38.2415 35.7305 37.8248C35.2971 37.4081 35.0805 36.8998 35.0805 36.2998C35.0805 35.7331 35.2971 35.2331 35.7305 34.7998C36.1638 34.3665 36.6638 34.1498 37.2305 34.1498C37.8305 34.1498 38.3388 34.3665 38.7555 34.7998C39.1721 35.2331 39.3805 35.7331 39.3805 36.2998C39.3805 36.8998 39.1721 37.4081 38.7555 37.8248C38.3388 38.2415 37.8305 38.4498 37.2305 38.4498ZM12.6305 26.1498C12.0305 26.1498 11.5221 25.9415 11.1055 25.5248C10.6888 25.1081 10.4805 24.5998 10.4805 23.9998C10.4805 23.3998 10.6888 22.8915 11.1055 22.4748C11.5221 22.0581 12.0305 21.8498 12.6305 21.8498C13.1971 21.8498 13.6971 22.0581 14.1305 22.4748C14.5638 22.8915 14.7805 23.3998 14.7805 23.9998C14.7805 24.5998 14.5638 25.1081 14.1305 25.5248C13.6971 25.9415 13.1971 26.1498 12.6305 26.1498ZM24.9305 26.1498C24.3305 26.1498 23.8221 25.9415 23.4055 25.5248C22.9888 25.1081 22.7805 24.5998 22.7805 23.9998C22.7805 23.3998 22.9888 22.8915 23.4055 22.4748C23.8221 22.0581 24.3305 21.8498 24.9305 21.8498C25.5305 21.8498 26.0388 22.0581 26.4555 22.4748C26.8721 22.8915 27.0805 23.3998 27.0805 23.9998C27.0805 24.5998 26.8721 25.1081 26.4555 25.5248C26.0388 25.9415 25.5305 26.1498 24.9305 26.1498ZM37.2305 26.1498C36.6638 26.1498 36.1638 25.9415 35.7305 25.5248C35.2971 25.1081 35.0805 24.5998 35.0805 23.9998C35.0805 23.3998 35.2971 22.8915 35.7305 22.4748C36.1638 22.0581 36.6638 21.8498 37.2305 21.8498C37.8305 21.8498 38.3388 22.0581 38.7555 22.4748C39.1721 22.8915 39.3805 23.3998 39.3805 23.9998C39.3805 24.5998 39.1721 25.1081 38.7555 25.5248C38.3388 25.9415 37.8305 26.1498 37.2305 26.1498ZM12.6305 13.8498C12.0305 13.8498 11.5221 13.6331 11.1055 13.1998C10.6888 12.7665 10.4805 12.2665 10.4805 11.6998C10.4805 11.0998 10.6888 10.5915 11.1055 10.1748C11.5221 9.75814 12.0305 9.5498 12.6305 9.5498C13.1971 9.5498 13.6971 9.75814 14.1305 10.1748C14.5638 10.5915 14.7805 11.0998 14.7805 11.6998C14.7805 12.2665 14.5638 12.7665 14.1305 13.1998C13.6971 13.6331 13.1971 13.8498 12.6305 13.8498ZM24.9305 13.8498C24.3305 13.8498 23.8221 13.6331 23.4055 13.1998C22.9888 12.7665 22.7805 12.2665 22.7805 11.6998C22.7805 11.0998 22.9888 10.5915 23.4055 10.1748C23.8221 9.75814 24.3305 9.5498 24.9305 9.5498C25.5305 9.5498 26.0388 9.75814 26.4555 10.1748C26.8721 10.5915 27.0805 11.0998 27.0805 11.6998C27.0805 12.2665 26.8721 12.7665 26.4555 13.1998C26.0388 13.6331 25.5305 13.8498 24.9305 13.8498ZM37.2305 13.8498C36.6638 13.8498 36.1638 13.6331 35.7305 13.1998C35.2971 12.7665 35.0805 12.2665 35.0805 11.6998C35.0805 11.0998 35.2971 10.5915 35.7305 10.1748C36.1638 9.75814 36.6638 9.5498 37.2305 9.5498C37.8305 9.5498 38.3388 9.75814 38.7555 10.1748C39.1721 10.5915 39.3805 11.0998 39.3805 11.6998C39.3805 12.2665 39.1721 12.7665 38.7555 13.1998C38.3388 13.6331 37.8305 13.8498 37.2305 13.8498Z" fill="#1C1C1E"/>
</g>
</svg>
