<svg width="49" height="48" viewBox="0 0 49 48" fill="none" xmlns="http://www.w3.org/2000/svg">
    <mask id="mask0_36_5371" style="mask-type:alpha" maskUnits="userSpaceOnUse" x="0" y="0" width="49" height="48">
        <rect x="0.287109" width="48" height="48" fill="#1C1C1E" />
    </mask>
    <g mask="url(#mask0_36_5371)">
        <path d="M10.2871 35C8.95378 35 7.82878 34.5333 6.91211 33.6C5.99544 32.6667 5.53711 31.55 5.53711 30.25C5.53711 28.9167 5.99544 27.775 6.91211 26.825C7.82878 25.875 8.95378 25.4 10.2871 25.4C11.3538 25.4 12.3704 25.7333 13.3371 26.4C14.3038 27.0667 14.9038 28.0667 15.1371 29.4H27.9371C28.1371 26.9333 29.0871 24.8167 30.7871 23.05C32.4871 21.2833 34.5204 20.3 36.8871 20.1L33.6371 5.45C33.6038 5.18333 33.4621 4.96667 33.2121 4.8C32.9621 4.63333 32.7204 4.55 32.4871 4.55H25.8871V3H32.2371C32.9038 3 33.5371 3.21667 34.1371 3.65C34.7371 4.08333 35.1204 4.66667 35.2871 5.4L38.7371 21.4H38.2871C35.8204 21.4 33.7288 22.2667 32.0121 24C30.2954 25.7333 29.4371 27.8333 29.4371 30.3V30.9H15.1371C14.9038 32.2667 14.3038 33.2917 13.3371 33.975C12.3704 34.6583 11.3538 35 10.2871 35ZM10.2871 33.45C11.1871 33.45 11.9621 33.125 12.6121 32.475C13.2621 31.825 13.5871 31.0667 13.5871 30.2C13.5871 29.3 13.2621 28.5333 12.6121 27.9C11.9621 27.2667 11.2038 26.95 10.3371 26.95C9.43711 26.95 8.66211 27.2667 8.01211 27.9C7.36211 28.5333 7.03711 29.3 7.03711 30.2C7.03711 31.1 7.36211 31.8667 8.01211 32.5C8.66211 33.1333 9.42044 33.45 10.2871 33.45ZM38.2871 35.1C36.9538 35.1 35.8121 34.6333 34.8621 33.7C33.9121 32.7667 33.4371 31.6333 33.4371 30.3C33.4371 28.9667 33.9038 27.8333 34.8371 26.9C35.7704 25.9667 36.9204 25.5 38.2871 25.5C39.6204 25.5 40.7454 25.9667 41.6621 26.9C42.5788 27.8333 43.0371 28.9667 43.0371 30.3C43.0371 31.6333 42.5788 32.7667 41.6621 33.7C40.7454 34.6333 39.6204 35.1 38.2871 35.1ZM38.2371 33.55C39.1371 33.55 39.9121 33.225 40.5621 32.575C41.2121 31.925 41.5371 31.1667 41.5371 30.3C41.5371 29.4 41.2121 28.625 40.5621 27.975C39.9121 27.325 39.1538 27 38.2871 27C37.3871 27 36.6121 27.325 35.9621 27.975C35.3121 28.625 34.9871 29.4 34.9871 30.3C34.9871 31.1667 35.3121 31.925 35.9621 32.575C36.6121 33.225 37.3704 33.55 38.2371 33.55ZM26.2871 45.3L16.2871 40.25H22.8371V36.8L32.8371 41.9H26.2871V45.3Z" fill="#1C1C1E" />
    </g>
</svg>