<svg width="49" height="48" viewBox="0 0 49 48" fill="none" xmlns="http://www.w3.org/2000/svg">
    <mask id="mask0_36_5378" style="mask-type:alpha" maskUnits="userSpaceOnUse" x="0" y="0" width="49" height="48">
        <rect x="0.574219" width="48" height="48" fill="#1C1C1E" />
    </mask>
    <g mask="url(#mask0_36_5378)">
        <path d="M14.8246 33.1996C13.4579 33.1996 12.2996 32.7163 11.3496 31.7496C10.3996 30.7829 9.92461 29.6329 9.92461 28.2996H5.97461V23.2996C5.97461 21.3663 6.64128 19.7329 7.97461 18.3996C9.30794 17.0663 10.9413 16.3996 12.8746 16.3996H19.7246V26.7496H28.6746L36.3746 17.1496V11.3496C36.3746 11.0163 36.2579 10.7329 36.0246 10.4996C35.7913 10.2663 35.4913 10.1496 35.1246 10.1496H30.3246V8.59961H35.1246C35.8913 8.59961 36.5413 8.87461 37.0746 9.42461C37.6079 9.97461 37.8746 10.6163 37.8746 11.3496V17.6496L29.4746 28.2996H19.7246C19.7246 29.6329 19.2496 30.7829 18.2996 31.7496C17.3496 32.7163 16.1913 33.1996 14.8246 33.1996ZM14.8246 31.6996C15.7246 31.6996 16.5079 31.3579 17.1746 30.6746C17.8413 29.9913 18.1746 29.1996 18.1746 28.2996H11.4246C11.4246 29.1996 11.7579 29.9913 12.4246 30.6746C13.0913 31.3579 13.8913 31.6996 14.8246 31.6996ZM11.9746 12.2996V10.7496H19.7246V12.2996H11.9746ZM38.2746 33.1996C36.9079 33.1996 35.7496 32.7329 34.7996 31.7996C33.8496 30.8663 33.3746 29.6996 33.3746 28.2996C33.3746 26.9329 33.8413 25.7746 34.7746 24.8246C35.7079 23.8746 36.8746 23.3996 38.2746 23.3996C39.6413 23.3996 40.7996 23.8663 41.7496 24.7996C42.6996 25.7329 43.1746 26.8996 43.1746 28.2996C43.1746 29.6663 42.7079 30.8246 41.7746 31.7746C40.8413 32.7246 39.6746 33.1996 38.2746 33.1996ZM38.2746 31.6996C39.2079 31.6996 40.0079 31.3663 40.6746 30.6996C41.3413 30.0329 41.6746 29.2329 41.6746 28.2996C41.6746 27.3663 41.3413 26.5746 40.6746 25.9246C40.0079 25.2746 39.2079 24.9496 38.2746 24.9496C37.3413 24.9496 36.5413 25.2746 35.8746 25.9246C35.2079 26.5746 34.8746 27.3663 34.8746 28.2996C34.8746 29.2329 35.2079 30.0329 35.8746 30.6996C36.5413 31.3663 37.3413 31.6996 38.2746 31.6996ZM26.6746 45.2996L16.6746 40.2496H23.2746V36.8496L33.2746 41.8496H26.6746V45.2996ZM7.47461 26.7496H18.1746V17.8996H12.8746C11.3746 17.8996 10.0996 18.4246 9.04961 19.4746C7.99961 20.5246 7.47461 21.7996 7.47461 23.2996V26.7496Z" fill="#1C1C1E" />
    </g>
</svg>