<svg width="36" height="24" viewBox="0 0 36 24" fill="none" xmlns="http://www.w3.org/2000/svg">
<path d="M8.56452 24C7.24194 24 6.12097 23.5285 5.20161 22.5854C4.28226 21.6423 3.82258 20.5203 3.82258 19.2195H0V14.3415C0 12.4553 0.645161 10.8618 1.93548 9.56097C3.22581 8.26016 4.80645 7.60976 6.67742 7.60976H13.3065V17.7073H21.9677L29.4194 8.34146V2.68293C29.4194 2.35772 29.3065 2.0813 29.0806 1.85366C28.8548 1.62602 28.5645 1.51219 28.2097 1.51219H23.5645V0H28.2097C28.9516 0 29.5806 0.268292 30.0968 0.804878C30.6129 1.34146 30.871 1.96748 30.871 2.68293V8.82927L22.7419 19.2195H13.3065C13.3065 20.5203 12.8468 21.6423 11.9274 22.5854C11.0081 23.5285 9.8871 24 8.56452 24ZM8.56452 22.5366C9.43549 22.5366 10.1936 22.2033 10.8387 21.5366C11.4839 20.8699 11.8065 20.0976 11.8065 19.2195H5.27419C5.27419 20.0976 5.59677 20.8699 6.24194 21.5366C6.8871 22.2033 7.66129 22.5366 8.56452 22.5366ZM5.80645 3.60976V2.09756H13.3065V3.60976H5.80645ZM31.2581 24C29.9355 24 28.8145 23.5447 27.8952 22.6341C26.9758 21.7236 26.5161 20.5854 26.5161 19.2195C26.5161 17.8862 26.9677 16.7561 27.871 15.8293C28.7742 14.9024 29.9032 14.439 31.2581 14.439C32.5806 14.439 33.7016 14.8943 34.621 15.8049C35.5403 16.7154 36 17.8537 36 19.2195C36 20.5528 35.5484 21.6829 34.6452 22.6098C33.7419 23.5366 32.6129 24 31.2581 24ZM31.2581 22.5366C32.1613 22.5366 32.9355 22.2114 33.5806 21.561C34.2258 20.9106 34.5484 20.1301 34.5484 19.2195C34.5484 18.3089 34.2258 17.5366 33.5806 16.9024C32.9355 16.2683 32.1613 15.9512 31.2581 15.9512C30.3548 15.9512 29.5806 16.2683 28.9355 16.9024C28.2903 17.5366 27.9677 18.3089 27.9677 19.2195C27.9677 20.1301 28.2903 20.9106 28.9355 21.561C29.5806 22.2114 30.3548 22.5366 31.2581 22.5366ZM1.45161 17.7073H11.8065V9.07317H6.67742C5.22581 9.07317 3.99194 9.58537 2.97581 10.6098C1.95968 11.6341 1.45161 12.878 1.45161 14.3415V17.7073Z" fill="#1C1C1E"/>
</svg>
