<svg width="36" height="24" viewBox="0 0 36 24" fill="none" xmlns="http://www.w3.org/2000/svg">
<path d="M9.00742 23.2813C7.74689 23.2813 6.67852 22.8247 5.8023 21.9114C4.92607 20.9982 4.48796 19.9118 4.48796 18.6521H0.844727V13.9285C0.844727 12.102 1.45962 10.559 2.6894 9.29934C3.91919 8.0397 5.42568 7.40988 7.20886 7.40988H13.5269V17.1878H21.7818L28.8838 8.11843V2.63901C28.8838 2.32411 28.7762 2.05643 28.561 1.836C28.3458 1.61556 28.0691 1.50534 27.7309 1.50534H23.3037V0.0410156H27.7309C28.438 0.0410156 29.0375 0.300815 29.5295 0.820415C30.0214 1.34001 30.2673 1.94621 30.2673 2.63901V8.59079L22.5197 18.6521H13.5269C13.5269 19.9118 13.0888 20.9982 12.2126 21.9114C11.3363 22.8247 10.268 23.2813 9.00742 23.2813ZM9.00742 21.8642C9.83753 21.8642 10.56 21.5414 11.1749 20.8959C11.7898 20.2503 12.0973 19.5024 12.0973 18.6521H5.87147C5.87147 19.5024 6.17892 20.2503 6.79381 20.8959C7.4087 21.5414 8.14657 21.8642 9.00742 21.8642ZM6.37876 3.5365V2.07218H13.5269V3.5365H6.37876ZM30.6363 23.2813C29.3757 23.2813 28.3074 22.8404 27.4311 21.9587C26.5549 21.0769 26.1168 19.9747 26.1168 18.6521C26.1168 17.361 26.5472 16.2667 27.4081 15.3692C28.2689 14.4717 29.345 14.023 30.6363 14.023C31.8968 14.023 32.9652 14.4638 33.8414 15.3456C34.7176 16.2273 35.1557 17.3295 35.1557 18.6521C35.1557 19.9433 34.7253 21.0376 33.8644 21.9351C33.0036 22.8325 31.9275 23.2813 30.6363 23.2813ZM30.6363 21.8642C31.4971 21.8642 32.235 21.5493 32.8499 20.9195C33.4648 20.2897 33.7722 19.5339 33.7722 18.6521C33.7722 17.7704 33.4648 17.0225 32.8499 16.4084C32.235 15.7943 31.4971 15.4873 30.6363 15.4873C29.7754 15.4873 29.0375 15.7943 28.4227 16.4084C27.8078 17.0225 27.5003 17.7704 27.5003 18.6521C27.5003 19.5339 27.8078 20.2897 28.4227 20.9195C29.0375 21.5493 29.7754 21.8642 30.6363 21.8642ZM2.22823 17.1878H12.0973V8.82697H7.20886C5.82536 8.82697 4.64937 9.32296 3.68092 10.3149C2.71246 11.3069 2.22823 12.5114 2.22823 13.9285V17.1878Z" fill="#1C1C1E"/>
<path d="M19.9882 5L17 11.286L19.0414 11.286L19.0414 15.4348L22 9.14877L19.9882 9.14877L19.9882 5Z" fill="#1C1C1E"/>
</svg>
