<svg width="20" height="21" viewBox="0 0 20 21" fill="none" xmlns="http://www.w3.org/2000/svg">
    <path d="M10.0004 18C9.74953 17.9997 9.50454 17.9239 9.29731 17.7824C6.22739 15.6984 4.89809 14.2695 4.16489 13.3762C2.60239 11.4719 1.85434 9.5168 1.87543 7.39961C1.90004 4.97344 3.84653 3 6.2145 3C7.93637 3 9.12895 3.96992 9.82348 4.77773C9.84548 4.80307 9.87267 4.82338 9.90319 4.8373C9.93372 4.85122 9.96688 4.85842 10.0004 4.85842C10.034 4.85842 10.0671 4.85122 10.0977 4.8373C10.1282 4.82338 10.1554 4.80307 10.1774 4.77773C10.8719 3.96914 12.0645 3 13.7864 3C16.1543 3 18.1008 4.97344 18.1254 7.4C18.1465 9.51758 17.3977 11.4727 15.836 13.3766C15.1028 14.2699 13.7735 15.6988 10.7036 17.7828C10.4963 17.9241 10.2513 17.9998 10.0004 18V18Z" fill="white" />
</svg>