<svg width="38" height="25" viewBox="0 0 38 25" fill="none" xmlns="http://www.w3.org/2000/svg">
    <style>
        path {
          fill: #AFAFAF;
        }
        @media (prefers-color-scheme: dark) {
          path { fill: #1C1C1E; }
        }
      </style>
    <path d="M8.95059 24.6C7.58392 24.6 6.42559 24.1167 5.47559 23.15C4.52559 22.1833 4.05059 21.0333 4.05059 19.7H0.100586V14.7C0.100586 12.7667 0.767253 11.1333 2.10059 9.8C3.43392 8.46667 5.06725 7.8 7.00059 7.8H13.8506V18.15H22.8006L30.5006 8.55V2.75C30.5006 2.41667 30.3839 2.13333 30.1506 1.9C29.9173 1.66667 29.6173 1.55 29.2506 1.55H24.4506V0H29.2506C30.0173 0 30.6673 0.275 31.2006 0.825C31.7339 1.375 32.0006 2.01667 32.0006 2.75V9.05L23.6006 19.7H13.8506C13.8506 21.0333 13.3756 22.1833 12.4256 23.15C11.4756 24.1167 10.3173 24.6 8.95059 24.6ZM8.95059 23.1C9.85059 23.1 10.6339 22.7583 11.3006 22.075C11.9673 21.3917 12.3006 20.6 12.3006 19.7H5.55059C5.55059 20.6 5.88392 21.3917 6.55059 22.075C7.21725 22.7583 8.01725 23.1 8.95059 23.1ZM6.10059 3.7V2.15H13.8506V3.7H6.10059ZM32.4006 24.6C31.0339 24.6 29.8756 24.1333 28.9256 23.2C27.9756 22.2667 27.5006 21.1 27.5006 19.7C27.5006 18.3333 27.9673 17.175 28.9006 16.225C29.8339 15.275 31.0006 14.8 32.4006 14.8C33.7673 14.8 34.9256 15.2667 35.8756 16.2C36.8256 17.1333 37.3006 18.3 37.3006 19.7C37.3006 21.0667 36.8339 22.225 35.9006 23.175C34.9673 24.125 33.8006 24.6 32.4006 24.6ZM32.4006 23.1C33.3339 23.1 34.1339 22.7667 34.8006 22.1C35.4673 21.4333 35.8006 20.6333 35.8006 19.7C35.8006 18.7667 35.4673 17.975 34.8006 17.325C34.1339 16.675 33.3339 16.35 32.4006 16.35C31.4673 16.35 30.6673 16.675 30.0006 17.325C29.3339 17.975 29.0006 18.7667 29.0006 19.7C29.0006 20.6333 29.3339 21.4333 30.0006 22.1C30.6673 22.7667 31.4673 23.1 32.4006 23.1ZM1.60059 18.15H12.3006V9.3H7.00059C5.50059 9.3 4.22559 9.825 3.17559 10.875C2.12559 11.925 1.60059 13.2 1.60059 14.7V18.15Z" fill="#1C1C1E" />
</svg>