<svg width="49" height="48" viewBox="0 0 49 48" fill="none" xmlns="http://www.w3.org/2000/svg">
<mask id="mask0_36_5364" style="mask-type:alpha" maskUnits="userSpaceOnUse" x="0" y="0" width="49" height="48">
<rect x="0.655273" width="48" height="48" fill="#D9D9D9"/>
</mask>
<g mask="url(#mask0_36_5364)">
<path d="M10.5053 39C8.00527 39 5.90527 38.15 4.20527 36.45C2.50527 34.75 1.65527 32.6333 1.65527 30.1C1.65527 27.6667 2.52194 25.5667 4.25527 23.8C5.98861 22.0333 8.08861 21.15 10.5553 21.15C12.7553 21.15 14.7136 21.9167 16.4303 23.45C18.1469 24.9833 19.1053 26.9333 19.3053 29.3H23.4553L18.9053 16.55H15.6553V15H23.3553V16.55H20.5553L22.2053 21.15H34.7553L31.0553 11.25C30.9886 11.0167 30.8636 10.8417 30.6803 10.725C30.4969 10.6083 30.2886 10.55 30.0553 10.55H25.8053V9H29.9053C30.5053 9 31.0469 9.15833 31.5303 9.475C32.0136 9.79167 32.3553 10.2333 32.5553 10.8L36.3553 21.2H38.8053C41.2386 21.2 43.3219 22.0583 45.0553 23.775C46.7886 25.4917 47.6553 27.5667 47.6553 30C47.6553 32.4667 46.7969 34.5667 45.0803 36.3C43.3636 38.0333 41.2719 38.9 38.8053 38.9C36.5053 38.9 34.5219 38.125 32.8553 36.575C31.1886 35.025 30.2219 33.1167 29.9553 30.85H19.3053C19.1053 33.1833 18.1469 35.125 16.4303 36.675C14.7136 38.225 12.7386 39 10.5053 39ZM10.5053 37.45C12.2719 37.45 13.8469 36.8583 15.2303 35.675C16.6136 34.4917 17.4886 32.8833 17.8553 30.85H11.8053V29.3H17.8553C17.4886 27.2667 16.6136 25.675 15.2303 24.525C13.8469 23.375 12.2886 22.8 10.5553 22.8C8.48861 22.8 6.74694 23.5083 5.33027 24.925C3.91361 26.3417 3.20527 28.0667 3.20527 30.1C3.20527 32.1667 3.91361 33.9083 5.33027 35.325C6.74694 36.7417 8.47194 37.45 10.5053 37.45ZM25.1553 29.3H29.9553C30.0553 28.3667 30.4136 27.2167 31.0303 25.85C31.6469 24.4833 32.5386 23.4333 33.7053 22.7H22.7553L25.1553 29.3ZM38.8053 37.45C40.8386 37.45 42.5636 36.7417 43.9803 35.325C45.3969 33.9083 46.1053 32.1667 46.1053 30.1C46.1053 28.0667 45.3969 26.3417 43.9803 24.925C42.5636 23.5083 40.8386 22.8 38.8053 22.8H37.8553C37.5219 22.8 37.2053 22.85 36.9053 22.95L39.0053 28.6L37.5553 29.15L35.4553 23.45C34.1553 24.1167 33.1719 25.075 32.5053 26.325C31.8386 27.575 31.5053 28.8333 31.5053 30.1C31.5053 32.1667 32.2136 33.9083 33.6303 35.325C35.0469 36.7417 36.7719 37.45 38.8053 37.45Z" fill="#1C1C1E"/>
</g>
</svg>
