<svg width="36" height="24" viewBox="0 0 36 24" fill="none" xmlns="http://www.w3.org/2000/svg">
<path d="M6.92609 24C4.96957 24 3.32609 23.32 1.99565 21.96C0.665217 20.6 0 18.9067 0 16.88C0 14.9333 0.678261 13.2533 2.03478 11.84C3.3913 10.4267 5.03478 9.72 6.96522 9.72C8.68696 9.72 10.2196 10.3333 11.563 11.56C12.9065 12.7867 13.6565 14.3467 13.813 16.24H17.0609L13.5 6.04H10.9565V4.8H16.9826V6.04H14.7913L16.0826 9.72H25.9043L23.0087 1.8C22.9565 1.61333 22.8587 1.47333 22.7152 1.38C22.5717 1.28667 22.4087 1.24 22.2261 1.24H18.9V0H22.1087C22.5783 0 23.0022 0.126667 23.3804 0.38C23.7587 0.633334 24.0261 0.986667 24.1826 1.44L27.1565 9.76H29.0739C30.9783 9.76 32.6087 10.4467 33.9652 11.82C35.3217 13.1933 36 14.8533 36 16.8C36 18.7733 35.3283 20.4533 33.9848 21.84C32.6413 23.2267 31.0043 23.92 29.0739 23.92C27.2739 23.92 25.7217 23.3 24.4174 22.06C23.113 20.82 22.3565 19.2933 22.1478 17.48H13.813C13.6565 19.3467 12.9065 20.9 11.563 22.14C10.2196 23.38 8.67391 24 6.92609 24ZM6.92609 22.76C8.3087 22.76 9.5413 22.2867 10.6239 21.34C11.7065 20.3933 12.3913 19.1067 12.6783 17.48H7.94348V16.24H12.6783C12.3913 14.6133 11.7065 13.34 10.6239 12.42C9.5413 11.5 8.32174 11.04 6.96522 11.04C5.34783 11.04 3.98478 11.6067 2.87609 12.74C1.76739 13.8733 1.21304 15.2533 1.21304 16.88C1.21304 18.5333 1.76739 19.9267 2.87609 21.06C3.98478 22.1933 5.33478 22.76 6.92609 22.76ZM18.3913 16.24H22.1478C22.2261 15.4933 22.5065 14.5733 22.9891 13.48C23.4717 12.3867 24.1696 11.5467 25.0826 10.96H16.513L18.3913 16.24ZM29.0739 22.76C30.6652 22.76 32.0152 22.1933 33.1239 21.06C34.2326 19.9267 34.787 18.5333 34.787 16.88C34.787 15.2533 34.2326 13.8733 33.1239 12.74C32.0152 11.6067 30.6652 11.04 29.0739 11.04H28.3304C28.0696 11.04 27.8217 11.08 27.587 11.16L29.2304 15.68L28.0957 16.12L26.4522 11.56C25.4348 12.0933 24.6652 12.86 24.1435 13.86C23.6217 14.86 23.3609 15.8667 23.3609 16.88C23.3609 18.5333 23.9152 19.9267 25.0239 21.06C26.1326 22.1933 27.4826 22.76 29.0739 22.76Z" fill="#1C1C1E"/>
</svg>
