<svg width="32" height="32" viewBox="0 0 32 32" fill="none" xmlns="http://www.w3.org/2000/svg">
<mask id="mask0_558_7806" style="mask-type:alpha" maskUnits="userSpaceOnUse" x="0" y="0" width="32" height="32">
<rect width="32" height="32" fill="#D9D9D9"/>
</mask>
<g mask="url(#mask0_558_7806)">
<path d="M7.99967 26.6666C7.26634 26.6666 6.63879 26.4057 6.11701 25.8839C5.59434 25.3613 5.33301 24.7333 5.33301 23.9999C5.33301 23.2666 5.59434 22.6386 6.11701 22.1159C6.63879 21.5941 7.26634 21.3333 7.99967 21.3333C8.73301 21.3333 9.36056 21.5941 9.88234 22.1159C10.405 22.6386 10.6663 23.2666 10.6663 23.9999C10.6663 24.7333 10.405 25.3613 9.88234 25.8839C9.36056 26.4057 8.73301 26.6666 7.99967 26.6666ZM15.9997 26.6666C15.2663 26.6666 14.6388 26.4057 14.117 25.8839C13.5943 25.3613 13.333 24.7333 13.333 23.9999C13.333 23.2666 13.5943 22.6386 14.117 22.1159C14.6388 21.5941 15.2663 21.3333 15.9997 21.3333C16.733 21.3333 17.361 21.5941 17.8837 22.1159C18.4055 22.6386 18.6663 23.2666 18.6663 23.9999C18.6663 24.7333 18.4055 25.3613 17.8837 25.8839C17.361 26.4057 16.733 26.6666 15.9997 26.6666ZM23.9997 26.6666C23.2663 26.6666 22.6383 26.4057 22.1157 25.8839C21.5939 25.3613 21.333 24.7333 21.333 23.9999C21.333 23.2666 21.5939 22.6386 22.1157 22.1159C22.6383 21.5941 23.2663 21.3333 23.9997 21.3333C24.733 21.3333 25.361 21.5941 25.8837 22.1159C26.4055 22.6386 26.6663 23.2666 26.6663 23.9999C26.6663 24.7333 26.4055 25.3613 25.8837 25.8839C25.361 26.4057 24.733 26.6666 23.9997 26.6666ZM7.99967 18.6666C7.26634 18.6666 6.63879 18.4053 6.11701 17.8826C5.59434 17.3608 5.33301 16.7333 5.33301 15.9999C5.33301 15.2666 5.59434 14.6386 6.11701 14.1159C6.63879 13.5941 7.26634 13.3333 7.99967 13.3333C8.73301 13.3333 9.36056 13.5941 9.88234 14.1159C10.405 14.6386 10.6663 15.2666 10.6663 15.9999C10.6663 16.7333 10.405 17.3608 9.88234 17.8826C9.36056 18.4053 8.73301 18.6666 7.99967 18.6666ZM15.9997 18.6666C15.2663 18.6666 14.6388 18.4053 14.117 17.8826C13.5943 17.3608 13.333 16.7333 13.333 15.9999C13.333 15.2666 13.5943 14.6386 14.117 14.1159C14.6388 13.5941 15.2663 13.3333 15.9997 13.3333C16.733 13.3333 17.361 13.5941 17.8837 14.1159C18.4055 14.6386 18.6663 15.2666 18.6663 15.9999C18.6663 16.7333 18.4055 17.3608 17.8837 17.8826C17.361 18.4053 16.733 18.6666 15.9997 18.6666ZM23.9997 18.6666C23.2663 18.6666 22.6383 18.4053 22.1157 17.8826C21.5939 17.3608 21.333 16.7333 21.333 15.9999C21.333 15.2666 21.5939 14.6386 22.1157 14.1159C22.6383 13.5941 23.2663 13.3333 23.9997 13.3333C24.733 13.3333 25.361 13.5941 25.8837 14.1159C26.4055 14.6386 26.6663 15.2666 26.6663 15.9999C26.6663 16.7333 26.4055 17.3608 25.8837 17.8826C25.361 18.4053 24.733 18.6666 23.9997 18.6666ZM7.99967 10.6666C7.26634 10.6666 6.63879 10.4053 6.11701 9.88259C5.59434 9.36081 5.33301 8.73325 5.33301 7.99992C5.33301 7.26659 5.59434 6.63903 6.11701 6.11725C6.63879 5.59459 7.26634 5.33325 7.99967 5.33325C8.73301 5.33325 9.36056 5.59459 9.88234 6.11725C10.405 6.63903 10.6663 7.26659 10.6663 7.99992C10.6663 8.73325 10.405 9.36081 9.88234 9.88259C9.36056 10.4053 8.73301 10.6666 7.99967 10.6666ZM15.9997 10.6666C15.2663 10.6666 14.6388 10.4053 14.117 9.88259C13.5943 9.36081 13.333 8.73325 13.333 7.99992C13.333 7.26659 13.5943 6.63903 14.117 6.11725C14.6388 5.59459 15.2663 5.33325 15.9997 5.33325C16.733 5.33325 17.361 5.59459 17.8837 6.11725C18.4055 6.63903 18.6663 7.26659 18.6663 7.99992C18.6663 8.73325 18.4055 9.36081 17.8837 9.88259C17.361 10.4053 16.733 10.6666 15.9997 10.6666ZM23.9997 10.6666C23.2663 10.6666 22.6383 10.4053 22.1157 9.88259C21.5939 9.36081 21.333 8.73325 21.333 7.99992C21.333 7.26659 21.5939 6.63903 22.1157 6.11725C22.6383 5.59459 23.2663 5.33325 23.9997 5.33325C24.733 5.33325 25.361 5.59459 25.8837 6.11725C26.4055 6.63903 26.6663 7.26659 26.6663 7.99992C26.6663 8.73325 26.4055 9.36081 25.8837 9.88259C25.361 10.4053 24.733 10.6666 23.9997 10.6666Z" fill="white"/>
</g>
</svg>
