<svg width="71" height="72" viewBox="0 0 71 72" fill="none" xmlns="http://www.w3.org/2000/svg">
<g clip-path="url(#clip0_542_9167)">
<rect x="0.0693359" y="0.655029" width="70.6899" height="70.6899" rx="12.5886" fill="white"/>
<mask id="mask0_542_9167" style="mask-type:alpha" maskUnits="userSpaceOnUse" x="11" y="11" width="49" height="49">
<rect x="11.6895" y="11.655" width="48" height="48" fill="#D9D9D9"/>
</mask>
<g mask="url(#mask0_542_9167)">
<path d="M23.3893 50.1051C22.7893 50.1051 22.2809 49.8967 21.8643 49.4801C21.4476 49.0634 21.2393 48.5551 21.2393 47.9551C21.2393 47.3884 21.4476 46.8884 21.8643 46.4551C22.2809 46.0217 22.7893 45.8051 23.3893 45.8051C23.9559 45.8051 24.4559 46.0217 24.8893 46.4551C25.3226 46.8884 25.5393 47.3884 25.5393 47.9551C25.5393 48.5551 25.3226 49.0634 24.8893 49.4801C24.4559 49.8967 23.9559 50.1051 23.3893 50.1051ZM35.6893 50.1051C35.0893 50.1051 34.5809 49.8967 34.1643 49.4801C33.7476 49.0634 33.5393 48.5551 33.5393 47.9551C33.5393 47.3884 33.7476 46.8884 34.1643 46.4551C34.5809 46.0217 35.0893 45.8051 35.6893 45.8051C36.2893 45.8051 36.7976 46.0217 37.2143 46.4551C37.6309 46.8884 37.8393 47.3884 37.8393 47.9551C37.8393 48.5551 37.6309 49.0634 37.2143 49.4801C36.7976 49.8967 36.2893 50.1051 35.6893 50.1051ZM47.9893 50.1051C47.4226 50.1051 46.9226 49.8967 46.4893 49.4801C46.0559 49.0634 45.8393 48.5551 45.8393 47.9551C45.8393 47.3884 46.0559 46.8884 46.4893 46.4551C46.9226 46.0217 47.4226 45.8051 47.9893 45.8051C48.5893 45.8051 49.0976 46.0217 49.5143 46.4551C49.9309 46.8884 50.1393 47.3884 50.1393 47.9551C50.1393 48.5551 49.9309 49.0634 49.5143 49.4801C49.0976 49.8967 48.5893 50.1051 47.9893 50.1051ZM23.3893 37.8051C22.7893 37.8051 22.2809 37.5967 21.8643 37.1801C21.4476 36.7634 21.2393 36.2551 21.2393 35.6551C21.2393 35.0551 21.4476 34.5467 21.8643 34.1301C22.2809 33.7134 22.7893 33.5051 23.3893 33.5051C23.9559 33.5051 24.4559 33.7134 24.8893 34.1301C25.3226 34.5467 25.5393 35.0551 25.5393 35.6551C25.5393 36.2551 25.3226 36.7634 24.8893 37.1801C24.4559 37.5967 23.9559 37.8051 23.3893 37.8051ZM35.6893 37.8051C35.0893 37.8051 34.5809 37.5967 34.1643 37.1801C33.7476 36.7634 33.5393 36.2551 33.5393 35.6551C33.5393 35.0551 33.7476 34.5467 34.1643 34.1301C34.5809 33.7134 35.0893 33.5051 35.6893 33.5051C36.2893 33.5051 36.7976 33.7134 37.2143 34.1301C37.6309 34.5467 37.8393 35.0551 37.8393 35.6551C37.8393 36.2551 37.6309 36.7634 37.2143 37.1801C36.7976 37.5967 36.2893 37.8051 35.6893 37.8051ZM47.9893 37.8051C47.4226 37.8051 46.9226 37.5967 46.4893 37.1801C46.0559 36.7634 45.8393 36.2551 45.8393 35.6551C45.8393 35.0551 46.0559 34.5467 46.4893 34.1301C46.9226 33.7134 47.4226 33.5051 47.9893 33.5051C48.5893 33.5051 49.0976 33.7134 49.5143 34.1301C49.9309 34.5467 50.1393 35.0551 50.1393 35.6551C50.1393 36.2551 49.9309 36.7634 49.5143 37.1801C49.0976 37.5967 48.5893 37.8051 47.9893 37.8051ZM23.3893 25.5051C22.7893 25.5051 22.2809 25.2884 21.8643 24.8551C21.4476 24.4217 21.2393 23.9217 21.2393 23.3551C21.2393 22.7551 21.4476 22.2467 21.8643 21.8301C22.2809 21.4134 22.7893 21.2051 23.3893 21.2051C23.9559 21.2051 24.4559 21.4134 24.8893 21.8301C25.3226 22.2467 25.5393 22.7551 25.5393 23.3551C25.5393 23.9217 25.3226 24.4217 24.8893 24.8551C24.4559 25.2884 23.9559 25.5051 23.3893 25.5051ZM35.6893 25.5051C35.0893 25.5051 34.5809 25.2884 34.1643 24.8551C33.7476 24.4217 33.5393 23.9217 33.5393 23.3551C33.5393 22.7551 33.7476 22.2467 34.1643 21.8301C34.5809 21.4134 35.0893 21.2051 35.6893 21.2051C36.2893 21.2051 36.7976 21.4134 37.2143 21.8301C37.6309 22.2467 37.8393 22.7551 37.8393 23.3551C37.8393 23.9217 37.6309 24.4217 37.2143 24.8551C36.7976 25.2884 36.2893 25.5051 35.6893 25.5051ZM47.9893 25.5051C47.4226 25.5051 46.9226 25.2884 46.4893 24.8551C46.0559 24.4217 45.8393 23.9217 45.8393 23.3551C45.8393 22.7551 46.0559 22.2467 46.4893 21.8301C46.9226 21.4134 47.4226 21.2051 47.9893 21.2051C48.5893 21.2051 49.0976 21.4134 49.5143 21.8301C49.9309 22.2467 50.1393 22.7551 50.1393 23.3551C50.1393 23.9217 49.9309 24.4217 49.5143 24.8551C49.0976 25.2884 48.5893 25.5051 47.9893 25.5051Z" fill="#1C1C1E"/>
</g>
</g>
<defs>
<clipPath id="clip0_542_9167">
<rect width="70.6899" height="70.6899" fill="white" transform="translate(0.0693359 0.655029)"/>
</clipPath>
</defs>
</svg>
