<svg width="72" height="72" viewBox="0 0 72 72" fill="none" xmlns="http://www.w3.org/2000/svg">
<g clip-path="url(#clip0_542_9153)">
<rect x="0.689453" y="0.655029" width="70.6899" height="70.6899" rx="12.5886" fill="white"/>
<mask id="mask0_542_9153" style="mask-type:alpha" maskUnits="userSpaceOnUse" x="12" y="11" width="48" height="49">
<rect x="12" y="11.655" width="48" height="48" fill="#D9D9D9"/>
</mask>
<g mask="url(#mask0_542_9153)">
<path d="M22 46.655C20.6667 46.655 19.5417 46.1884 18.625 45.255C17.7083 44.3217 17.25 43.205 17.25 41.905C17.25 40.5717 17.7083 39.43 18.625 38.48C19.5417 37.53 20.6667 37.055 22 37.055C23.0667 37.055 24.0833 37.3884 25.05 38.055C26.0167 38.7217 26.6167 39.7217 26.85 41.055H39.65C39.85 38.5884 40.8 36.4717 42.5 34.705C44.2 32.9384 46.2333 31.955 48.6 31.755L45.35 17.105C45.3167 16.8384 45.175 16.6217 44.925 16.455C44.675 16.2884 44.4333 16.205 44.2 16.205H37.6V14.655H43.95C44.6167 14.655 45.25 14.8717 45.85 15.305C46.45 15.7384 46.8333 16.3217 47 17.055L50.45 33.055H50C47.5333 33.055 45.4417 33.9217 43.725 35.655C42.0083 37.3884 41.15 39.4884 41.15 41.955V42.555H26.85C26.6167 43.9217 26.0167 44.9467 25.05 45.63C24.0833 46.3134 23.0667 46.655 22 46.655ZM22 45.105C22.9 45.105 23.675 44.78 24.325 44.13C24.975 43.48 25.3 42.7217 25.3 41.855C25.3 40.955 24.975 40.1884 24.325 39.555C23.675 38.9217 22.9167 38.605 22.05 38.605C21.15 38.605 20.375 38.9217 19.725 39.555C19.075 40.1884 18.75 40.955 18.75 41.855C18.75 42.755 19.075 43.5217 19.725 44.155C20.375 44.7884 21.1333 45.105 22 45.105ZM50 46.755C48.6667 46.755 47.525 46.2884 46.575 45.355C45.625 44.4217 45.15 43.2884 45.15 41.955C45.15 40.6217 45.6167 39.4884 46.55 38.555C47.4833 37.6217 48.6333 37.155 50 37.155C51.3333 37.155 52.4583 37.6217 53.375 38.555C54.2917 39.4884 54.75 40.6217 54.75 41.955C54.75 43.2884 54.2917 44.4217 53.375 45.355C52.4583 46.2884 51.3333 46.755 50 46.755ZM49.95 45.205C50.85 45.205 51.625 44.88 52.275 44.23C52.925 43.58 53.25 42.8217 53.25 41.955C53.25 41.055 52.925 40.28 52.275 39.63C51.625 38.98 50.8667 38.655 50 38.655C49.1 38.655 48.325 38.98 47.675 39.63C47.025 40.28 46.7 41.055 46.7 41.955C46.7 42.8217 47.025 43.58 47.675 44.23C48.325 44.88 49.0833 45.205 49.95 45.205ZM38 56.955L28 51.905H34.55V48.455L44.55 53.555H38V56.955Z" fill="#1C1C1E"/>
</g>
</g>
<defs>
<clipPath id="clip0_542_9153">
<rect width="70.6899" height="70.6899" fill="white" transform="translate(0.689453 0.655029)"/>
</clipPath>
</defs>
</svg>
