<svg width="72" height="72" viewBox="0 0 72 72" fill="none" xmlns="http://www.w3.org/2000/svg">
<g clip-path="url(#clip0_542_9160)">
<rect x="0.379883" y="0.655029" width="70.6899" height="70.6899" rx="12.5886" fill="white"/>
<mask id="mask0_542_9160" style="mask-type:alpha" maskUnits="userSpaceOnUse" x="11" y="11" width="49" height="49">
<rect x="11.3105" y="11.655" width="48" height="48" fill="#D9D9D9"/>
</mask>
<g mask="url(#mask0_542_9160)">
<path d="M25.5609 44.8551C24.1943 44.8551 23.0359 44.3718 22.0859 43.4051C21.1359 42.4385 20.6609 41.2885 20.6609 39.9551H16.7109V34.9551C16.7109 33.0218 17.3776 31.3885 18.7109 30.0551C20.0443 28.7218 21.6776 28.0551 23.6109 28.0551H30.4609V38.4051H39.4109L47.1109 28.8051V23.0051C47.1109 22.6718 46.9943 22.3885 46.7609 22.1551C46.5276 21.9218 46.2276 21.8051 45.8609 21.8051H41.0609V20.2551H45.8609C46.6276 20.2551 47.2776 20.5301 47.8109 21.0801C48.3443 21.6301 48.6109 22.2718 48.6109 23.0051V29.3051L40.2109 39.9551H30.4609C30.4609 41.2885 29.9859 42.4385 29.0359 43.4051C28.0859 44.3718 26.9276 44.8551 25.5609 44.8551ZM25.5609 43.3551C26.4609 43.3551 27.2443 43.0135 27.9109 42.3301C28.5776 41.6468 28.9109 40.8551 28.9109 39.9551H22.1609C22.1609 40.8551 22.4943 41.6468 23.1609 42.3301C23.8276 43.0135 24.6276 43.3551 25.5609 43.3551ZM22.7109 23.9551V22.4051H30.4609V23.9551H22.7109ZM49.0109 44.8551C47.6443 44.8551 46.4859 44.3885 45.5359 43.4551C44.5859 42.5218 44.1109 41.3551 44.1109 39.9551C44.1109 38.5885 44.5776 37.4301 45.5109 36.4801C46.4443 35.5301 47.6109 35.0551 49.0109 35.0551C50.3776 35.0551 51.5359 35.5218 52.4859 36.4551C53.4359 37.3885 53.9109 38.5551 53.9109 39.9551C53.9109 41.3218 53.4443 42.4801 52.5109 43.4301C51.5776 44.3801 50.4109 44.8551 49.0109 44.8551ZM49.0109 43.3551C49.9443 43.3551 50.7443 43.0218 51.4109 42.3551C52.0776 41.6885 52.4109 40.8885 52.4109 39.9551C52.4109 39.0218 52.0776 38.2301 51.4109 37.5801C50.7443 36.9301 49.9443 36.6051 49.0109 36.6051C48.0776 36.6051 47.2776 36.9301 46.6109 37.5801C45.9443 38.2301 45.6109 39.0218 45.6109 39.9551C45.6109 40.8885 45.9443 41.6885 46.6109 42.3551C47.2776 43.0218 48.0776 43.3551 49.0109 43.3551ZM37.4109 56.9551L27.4109 51.9051H34.0109V48.5051L44.0109 53.5051H37.4109V56.9551ZM18.2109 38.4051H28.9109V29.5551H23.6109C22.1109 29.5551 20.8359 30.0801 19.7859 31.1301C18.7359 32.1801 18.2109 33.4551 18.2109 34.9551V38.4051Z" fill="#1C1C1E"/>
</g>
</g>
<defs>
<clipPath id="clip0_542_9160">
<rect width="70.6899" height="70.6899" fill="white" transform="translate(0.379883 0.655029)"/>
</clipPath>
</defs>
</svg>
