<svg width="71" height="72" viewBox="0 0 71 72" fill="none" xmlns="http://www.w3.org/2000/svg">
<g clip-path="url(#clip0_542_9146)">
<rect y="0.655029" width="70.6899" height="70.6899" rx="12.5886" fill="white"/>
<mask id="mask0_542_9146" style="mask-type:alpha" maskUnits="userSpaceOnUse" x="11" y="11" width="48" height="49">
<rect x="11" y="11.655" width="48" height="48" fill="#D9D9D9"/>
</mask>
<g mask="url(#mask0_542_9146)">
<path d="M20.85 50.655C18.35 50.655 16.25 49.805 14.55 48.105C12.85 46.405 12 44.2884 12 41.755C12 39.3217 12.8667 37.2217 14.6 35.455C16.3333 33.6884 18.4333 32.805 20.9 32.805C23.1 32.805 25.0583 33.5717 26.775 35.105C28.4917 36.6384 29.45 38.5884 29.65 40.955H33.8L29.25 28.205H26V26.655H33.7V28.205H30.9L32.55 32.805H45.1L41.4 22.905C41.3333 22.6717 41.2083 22.4967 41.025 22.38C40.8417 22.2634 40.6333 22.205 40.4 22.205H36.15V20.655H40.25C40.85 20.655 41.3917 20.8134 41.875 21.13C42.3583 21.4467 42.7 21.8884 42.9 22.455L46.7 32.855H49.15C51.5833 32.855 53.6667 33.7134 55.4 35.43C57.1333 37.1467 58 39.2217 58 41.655C58 44.1217 57.1417 46.2217 55.425 47.955C53.7083 49.6884 51.6167 50.555 49.15 50.555C46.85 50.555 44.8667 49.78 43.2 48.23C41.5333 46.68 40.5667 44.7717 40.3 42.505H29.65C29.45 44.8384 28.4917 46.78 26.775 48.33C25.0583 49.88 23.0833 50.655 20.85 50.655ZM20.85 49.105C22.6167 49.105 24.1917 48.5134 25.575 47.33C26.9583 46.1467 27.8333 44.5384 28.2 42.505H22.15V40.955H28.2C27.8333 38.9217 26.9583 37.33 25.575 36.18C24.1917 35.03 22.6333 34.455 20.9 34.455C18.8333 34.455 17.0917 35.1634 15.675 36.58C14.2583 37.9967 13.55 39.7217 13.55 41.755C13.55 43.8217 14.2583 45.5634 15.675 46.98C17.0917 48.3967 18.8167 49.105 20.85 49.105ZM35.5 40.955H40.3C40.4 40.0217 40.7583 38.8717 41.375 37.505C41.9917 36.1384 42.8833 35.0884 44.05 34.355H33.1L35.5 40.955ZM49.15 49.105C51.1833 49.105 52.9083 48.3967 54.325 46.98C55.7417 45.5634 56.45 43.8217 56.45 41.755C56.45 39.7217 55.7417 37.9967 54.325 36.58C52.9083 35.1634 51.1833 34.455 49.15 34.455H48.2C47.8667 34.455 47.55 34.505 47.25 34.605L49.35 40.255L47.9 40.805L45.8 35.105C44.5 35.7717 43.5167 36.73 42.85 37.98C42.1833 39.23 41.85 40.4884 41.85 41.755C41.85 43.8217 42.5583 45.5634 43.975 46.98C45.3917 48.3967 47.1167 49.105 49.15 49.105Z" fill="#1C1C1E"/>
</g>
</g>
<defs>
<clipPath id="clip0_542_9146">
<rect width="70.6899" height="70.6899" fill="white" transform="translate(0 0.655029)"/>
</clipPath>
</defs>
</svg>
